<?xml version="1.0" encoding="utf-8"?>
<!-- Generator: Adobe Illustrator 26.3.1, SVG Export Plug-In . SVG Version: 6.00 Build 0)  -->
<svg version="1.1" id="레이어_1" xmlns="http://www.w3.org/2000/svg" xmlns:xlink="http://www.w3.org/1999/xlink" x="0px"
	 y="0px" viewBox="0 0 512 512" style="enable-background:new 0 0 512 512;" xml:space="preserve">
<path id="build_circle_FILL1_wght400_GRAD0_opsz48" d="M360.3,388.5l28.2-26.2c5.5-4.8,6-13.2,1.2-18.7c-0.4-0.4-0.7-0.8-1.2-1.2
	l-97.3-97.3c2-5.7,3.7-11.4,5.1-17.3c1.3-5.7,1.9-11.5,1.9-17.3c0-49.5-40.1-89.6-89.6-89.6l0,0c-7.4,0-14.7,1.1-21.8,3.2
	c-7.4,2.2-14.4,5.2-21.1,9l56.3,55.7l-34.6,32.6l-55-54.4c-3.8,6.6-6.7,13.7-8.7,21.1c-1.9,7.3-2.9,14.8-2.9,22.4
	c-0.4,23.3,8.8,45.6,25.6,61.8c16.4,16.6,38.8,25.7,62.1,25.3c5.9,0,11.8-0.5,17.6-1.6c6-1.1,11.9-2.7,17.6-4.8l96.6,97.3
	C346.1,393.6,354.7,393.6,360.3,388.5L360.3,388.5z M256,512c-34.1,0.2-67.9-6.7-99.2-20.2C95.3,465.7,46.3,416.7,20.2,355.2
	c-26.9-63.6-26.9-135.4,0-199c12.9-30.4,31.6-58,55-81.3c23.5-23.2,51.2-41.8,81.6-54.7c63.6-26.9,135.4-26.9,199,0
	c61.3,25.9,110.1,74.7,136,136c26.9,63.6,26.9,135.4,0,199c-12.9,30.4-31.5,58.1-54.7,81.6c-23.3,23.4-50.9,42.1-81.3,55
	C324.3,505.4,290.3,512.2,256,512z"/>
</svg>
