<?xml version="1.0" encoding="utf-8"?>
<!-- Generator: Adobe Illustrator 26.3.1, SVG Export Plug-In . SVG Version: 6.00 Build 0)  -->
<svg version="1.1" id="레이어_1" xmlns="http://www.w3.org/2000/svg" xmlns:xlink="http://www.w3.org/1999/xlink" x="0px"
	 y="0px" viewBox="0 0 512 512" style="enable-background:new 0 0 512 512;" xml:space="preserve">
<path id="public_FILL1_wght400_GRAD0_opsz48" d="M228.5,472.9v-52.5c-14.4,0.3-28.3-5.8-37.9-16.6c-10-10.5-15.5-24.5-15.4-39v-28.2
	L44.1,205.4c-2.1,8.3-3.6,16.8-4.5,25.3c-0.9,8.4-1.3,16.8-1.3,25.3c-0.7,53.5,18.5,105.3,54,145.3
	C126.9,441.8,175.6,467.5,228.5,472.9z M416.6,403.8c18.5-20,33-43.3,42.7-68.8c9.5-25.2,14.4-52,14.3-79
	c0.4-89.5-53.5-170.3-136.3-204.1v11.4c0.2,14.5-5.4,28.5-15.4,39c-9.6,10.8-23.4,16.9-37.8,16.6h-55.7v55.7c0.1,7-3,13.6-8.5,17.9
	c-5.5,4.6-12.4,7.1-19.5,7.1h-53.2V256h165.1c6.9-0.1,13.6,2.9,17.9,8.3c4.6,5.3,7.1,12.2,7,19.2v81.3h27.5
	c11.8-0.2,23.3,3.6,32.6,10.9C406.7,382.8,413.4,392.7,416.6,403.8L416.6,403.8z M256,512c-34.3,0.2-68.3-6.6-99.8-20.2
	c-61.3-25.9-110.1-74.7-136-136C-6.7,292-6.7,220,20.2,156.2c25.9-61.3,74.7-110.1,136-136C220-6.7,292-6.7,355.8,20.2
	c61.3,25.9,110.1,74.7,136,136c26.9,63.8,26.9,135.8,0,199.7c-25.9,61.3-74.7,110.1-136,136C324.3,505.3,290.3,512.2,256,512z"/>
</svg>
