<?xml version="1.0" encoding="utf-8"?>
<!-- Generator: Adobe Illustrator 26.3.1, SVG Export Plug-In . SVG Version: 6.00 Build 0)  -->
<svg version="1.1" id="레이어_1" xmlns="http://www.w3.org/2000/svg" xmlns:xlink="http://www.w3.org/1999/xlink" x="0px"
	 y="0px" viewBox="0 0 512 512" style="enable-background:new 0 0 512 512;" xml:space="preserve">
<path id="bookmark_add_FILL1_wght400_GRAD0_opsz48" d="M28.4,512V42.4c0-11.2,4.5-21.9,12.6-29.6C48.7,4.7,59.3,0.1,70.5,0.1h235.3
	c-10.3,11.5-18.5,24.8-24.1,39.1c-5.5,14.5-8.2,30-8,45.5c-0.2,61.9,44.1,114.9,105,125.7c13.9,1.9,28.1,1.9,42,0v301.5l-196-84.7
	L28.4,512z M378.5,169.5v-63.6h-63V63.5h63V0h42v63.5h63v42.4h-63v63.5L378.5,169.5z"/>
</svg>
