<?xml version="1.0" encoding="utf-8"?>
<!-- Generator: Adobe Illustrator 26.3.1, SVG Export Plug-In . SVG Version: 6.00 Build 0)  -->
<svg version="1.1" id="레이어_1" xmlns="http://www.w3.org/2000/svg" xmlns:xlink="http://www.w3.org/1999/xlink" x="0px"
	 y="0px" viewBox="0 0 512 512" style="enable-background:new 0 0 512 512;" xml:space="preserve">
<path id="category_FILL1_wght400_GRAD0_opsz48" d="M95,226.5L243.2,0l148.2,226.5H95z M394.8,512c-31,0.9-61-10.7-83.5-32
	c-43.8-42.3-45-112.2-2.7-156c0.9-0.9,1.8-1.8,2.7-2.7c22.5-21.3,52.5-32.9,83.5-32c31-0.9,61,10.7,83.5,32
	c43.8,42.3,45,112.2,2.7,156c-0.9,0.9-1.8,1.8-2.7,2.7C455.8,501.3,425.8,512.8,394.8,512z M0,496V301.5h204.8V496L0,496z"/>
</svg>
