<?xml version="1.0" encoding="utf-8"?>
<!-- Generator: Adobe Illustrator 26.3.1, SVG Export Plug-In . SVG Version: 6.00 Build 0)  -->
<svg version="1.1" id="레이어_1" xmlns="http://www.w3.org/2000/svg" xmlns:xlink="http://www.w3.org/1999/xlink" x="0px"
	 y="0px" viewBox="0 0 512 512" style="enable-background:new 0 0 512 512;" xml:space="preserve">
<path id="account_box_FILL1_wght400_GRAD0_opsz48" d="M42.7,443c28.5-26.6,61.2-48.3,96.7-64.4c36.6-16.5,76.4-24.9,116.6-24.6
	c40.2-0.3,80,8,116.6,24.5c35.5,16,68.2,37.8,96.7,64.4V42.7H42.7V443z M257.4,312.2c-53.6,0.6-97.6-42.5-98.1-96.1c0-0.7,0-1.3,0-2
	c-0.6-53.6,42.5-97.6,96.1-98.1c0.7,0,1.3,0,2,0c53.6-0.6,97.6,42.5,98.1,96.1c0,0.7,0,1.3,0,2c0.6,53.6-42.5,97.6-96.1,98.1
	C258.8,312.2,258.1,312.2,257.4,312.2z M42.7,512C19.3,511.4,0.6,492.7,0,469.3V42.7C0.6,19.3,19.3,0.6,42.7,0h426.6
	c23.3,0.6,42.1,19.3,42.7,42.7v426.6c-0.6,23.3-19.3,42.1-42.7,42.7H42.7z"/>
</svg>
