<?xml version="1.0" encoding="utf-8"?>
<!-- Generator: Adobe Illustrator 26.3.1, SVG Export Plug-In . SVG Version: 6.00 Build 0)  -->
<svg version="1.1" id="레이어_1" xmlns="http://www.w3.org/2000/svg" xmlns:xlink="http://www.w3.org/1999/xlink" x="0px"
	 y="0px" viewBox="0 0 512 512" style="enable-background:new 0 0 512 512;" xml:space="preserve">
<path id="desktop_windows_FILL1_wght400_GRAD0_opsz48" d="M162.5,483.7v-35.9h55.1v-59.9H38.3c-10,0.1-19.7-3.8-26.9-10.8
	C4.1,370.7,0,361.5,0,351.9V64.3c0-9.6,4.1-18.8,11.4-25.2c7.2-7,16.9-10.9,26.9-10.8h435.4c10-0.1,19.7,3.8,26.9,10.8
	c7.2,6.4,11.4,15.5,11.4,25.2v287.6c0,9.6-4.1,18.8-11.4,25.2c-7.2,7-16.9,10.9-26.9,10.8H294.4v59.9h55.1v36H162.5z"/>
</svg>
