<?xml version="1.0" encoding="utf-8"?>
<!-- Generator: Adobe Illustrator 26.3.1, SVG Export Plug-In . SVG Version: 6.00 Build 0)  -->
<svg version="1.1" id="레이어_1" xmlns="http://www.w3.org/2000/svg" xmlns:xlink="http://www.w3.org/1999/xlink" x="0px"
	 y="0px" viewBox="0 0 512 512" style="enable-background:new 0 0 512 512;" xml:space="preserve">
<path id="calendar_month_FILL0_wght400_GRAD0_opsz48" d="M256,307.2c-6.8,0.2-13.3-2.5-18-7.4c-9.7-10.2-9.7-26.2,0-36.5
	c10-9.9,26.1-9.9,36,0c9.7,10.2,9.7,26.2,0,36.5C269.3,304.7,262.8,307.4,256,307.2z M154.9,307.2c-6.8,0.2-13.3-2.5-18-7.4
	c-9.7-10.2-9.7-26.2,0-36.5c10-9.9,26.1-9.9,36,0c9.7,10.2,9.7,26.2,0,36.5C168.2,304.7,161.6,307.4,154.9,307.2z M357.1,307.2
	c-6.8,0.2-13.3-2.5-18-7.4c-9.7-10.2-9.7-26.2,0-36.5c10-9.9,26.1-9.9,36,0c9.7,10.2,9.7,26.2,0,36.5
	C370.4,304.7,363.9,307.4,357.1,307.2L357.1,307.2z M256,409.6c-6.8,0.2-13.3-2.5-18-7.4c-9.7-10.2-9.7-26.2,0-36.5
	c10-9.9,26.1-9.9,36,0c9.7,10.2,9.7,26.2,0,36.5C269.3,407.1,262.8,409.8,256,409.6z M154.9,409.6c-6.8,0.2-13.3-2.5-18-7.4
	c-9.7-10.2-9.7-26.2,0-36.5c10-9.9,26.1-9.9,36,0c9.7,10.2,9.7,26.2,0,36.5C168.2,407.1,161.6,409.8,154.9,409.6z M357.1,409.6
	c-6.8,0.2-13.3-2.5-18-7.4c-9.7-10.2-9.7-26.2,0-36.5c10-9.9,26.1-9.9,36,0c9.7,10.2,9.7,26.2,0,36.5
	C370.4,407.1,363.9,409.8,357.1,409.6L357.1,409.6z M66.4,512c-10,0.1-19.7-4.1-26.5-11.4c-7.4-7.1-11.5-16.8-11.4-27V76.8
	c-0.1-10.1,4.1-19.9,11.4-26.9c6.9-7.3,16.5-11.4,26.5-11.4h41.1V0h41.1v38.4h214.9V0h41.1v38.4h41.1c10-0.1,19.7,4.1,26.5,11.4
	c7.4,7,11.5,16.8,11.4,27v396.8c0.1,10.1-4.1,19.9-11.4,26.9c-6.9,7.3-16.5,11.4-26.5,11.4L66.4,512z M66.4,473.6h379.3V198.4H66.4
	V473.6z"/>
</svg>
