<?xml version="1.0" encoding="utf-8"?>
<!-- Generator: Adobe Illustrator 26.3.1, SVG Export Plug-In . SVG Version: 6.00 Build 0)  -->
<svg version="1.1" id="레이어_1" xmlns="http://www.w3.org/2000/svg" xmlns:xlink="http://www.w3.org/1999/xlink" x="0px"
	 y="0px" viewBox="0 0 512 512" style="enable-background:new 0 0 512 512;" xml:space="preserve">
<g id="SR" transform="translate(-31 -184)">
	<path id="rate_review_FILL1_wght400_GRAD0_opsz48_1_" d="M239,491.2h201.6v-38.4H277.4L239,491.2z M133.4,491.2H184l161.3-159.4
		c5.1-5.4,5.1-13.8,0-19.2l-35.2-32c-4.5-4.3-11.5-4.3-16,0L133.4,443.8V491.2z M31,696V222.4c0.1-10.1,4.2-19.6,11.5-26.6
		c6.9-7.5,16.7-11.8,26.9-11.8h435.2c10.1,0.1,19.7,4.4,26.6,11.9c7.4,6.8,11.7,16.4,11.8,26.5v332.8c-1.1,20.7-17.7,37.3-38.4,38.4
		H133.4L31,696z"/>
</g>
</svg>
