<?xml version="1.0" encoding="utf-8"?>
<!-- Generator: Adobe Illustrator 26.3.1, SVG Export Plug-In . SVG Version: 6.00 Build 0)  -->
<svg version="1.1" id="레이어_1" xmlns="http://www.w3.org/2000/svg" xmlns:xlink="http://www.w3.org/1999/xlink" x="0px"
	 y="0px" viewBox="0 0 512 512" style="enable-background:new 0 0 512 512;" xml:space="preserve">
<path id="person_FILL1_wght400_GRAD0_opsz48" d="M256,247.4c-32.4,1.1-63.7-11.4-86.4-34.6c-22.7-23.9-34.9-56-33.6-89
	c-1.3-33,10.9-65.1,33.6-89.1c22.7-23.2,54-35.7,86.4-34.6c32.4-1.1,63.7,11.4,86.4,34.6c22.7,23.9,34.9,56,33.6,89
	c1.2,33-10.9,65.1-33.6,89C319.8,235.9,288.4,248.5,256,247.4z M0,512v-77.5c-0.5-19,4.8-37.7,15.2-53.6
	c9.8-14.6,23.3-26.2,39.2-33.8c33-15.5,67.5-27.9,102.8-37.1c32.3-8.2,65.5-12.4,98.8-12.4c33.2,0,66.3,4.3,98.4,12.8
	c35.1,9.4,69.3,21.7,102.4,36.7c16.2,7.4,30,19.1,40,33.8c10.4,15.9,15.8,34.6,15.2,53.6V512H0z"/>
</svg>
